<svg width="1854" height="1281" xmlns="http://www.w3.org/2000/svg" xmlns:xlink="http://www.w3.org/1999/xlink" xml:space="preserve" overflow="hidden"><g transform="translate(-1187 -577)"><text fill="#1A865F" font-family="Fugaz One,Fugaz One_MSFontService,sans-serif" font-weight="400" font-size="527" transform="matrix(1 0 0 1 1865.28 1187)">IDP</text><text fill="#22B27F" font-family="Fugaz One,Fugaz One_MSFontService,sans-serif" font-weight="400" font-size="371" transform="matrix(1 0 0 1 1865.28 1506)">Book</text><path d="M0 0 592 0 592 603.909 452.909 743 0 743Z" fill="#DBD8DB" fill-rule="evenodd" transform="matrix(1 -1.22465e-16 -1.22465e-16 -1 1197 1562)"/><path d="M452.909 743 480.728 631.728 592 603.909Z" fill="#B0AEB0" fill-rule="evenodd" transform="matrix(1 -1.22465e-16 -1.22465e-16 -1 1197 1562)"/><path d="M0 0 592 0 592 603.909 452.909 743 0 743Z" fill="#ECEAEC" fill-rule="evenodd" transform="matrix(1 -1.22465e-16 -1.22465e-16 -1 1220 1538)"/><path d="M452.909 743 480.728 631.728 592 603.909Z" fill="#BEBCBE" fill-rule="evenodd" transform="matrix(1 -1.22465e-16 -1.22465e-16 -1 1220 1538)"/><path d="M1187 871.918C1187 859.261 1197.26 849 1209.92 849L1416.08 849C1428.74 849 1439 859.261 1439 871.918L1439 1076.08C1439 1088.74 1428.74 1099 1416.08 1099L1209.92 1099C1197.26 1099 1187 1088.74 1187 1076.08Z" fill="#FB4455" fill-rule="evenodd"/><path d="M1199 861.826C1199 849.22 1209.22 839 1221.83 839L1428.17 839C1440.78 839 1451 849.22 1451 861.826L1451 1065.17C1451 1077.78 1440.78 1088 1428.17 1088L1221.83 1088C1209.22 1088 1199 1077.78 1199 1065.17Z" fill="#FF5F7A" fill-rule="evenodd"/><path d="M1254 943.797 1305.8 943.797 1305.8 892 1344.2 892 1344.2 943.797 1396 943.797 1396 983.203 1344.2 983.203 1344.2 1035 1305.8 1035 1305.8 983.203 1254 983.203Z" fill="#ECEAEC" fill-rule="evenodd"/><path d="M1517 913.5C1517 902.178 1526.18 893 1537.5 893L1628.5 893C1639.82 893 1649 902.178 1649 913.5L1649 913.5C1649 924.822 1639.82 934 1628.5 934L1537.5 934C1526.18 934 1517 924.822 1517 913.5Z" fill="#FB4454" fill-rule="evenodd"/><path d="M1517 986.5C1517 980.701 1521.7 976 1527.5 976L1661.5 976C1667.3 976 1672 980.701 1672 986.5L1672 986.5C1672 992.299 1667.3 997 1661.5 997L1527.5 997C1521.7 997 1517 992.299 1517 986.5Z" fill="#615260" fill-rule="evenodd"/><path d="M1517 1037.5C1517 1031.7 1521.7 1027 1527.5 1027L1738.5 1027C1744.3 1027 1749 1031.7 1749 1037.5L1749 1037.5C1749 1043.3 1744.3 1048 1738.5 1048L1527.5 1048C1521.7 1048 1517 1043.3 1517 1037.5Z" fill="#615260" fill-rule="evenodd"/><path d="M1517 1088C1517 1081.92 1521.92 1077 1528 1077L1661 1077C1667.08 1077 1672 1081.92 1672 1088L1672 1088C1672 1094.08 1667.08 1099 1661 1099L1528 1099C1521.92 1099 1517 1094.08 1517 1088Z" fill="#615260" fill-rule="evenodd"/><path d="M1517 1161.5C1517 1155.7 1521.7 1151 1527.5 1151L1661.5 1151C1667.3 1151 1672 1155.7 1672 1161.5L1672 1161.5C1672 1167.3 1667.3 1172 1661.5 1172L1527.5 1172C1521.7 1172 1517 1167.3 1517 1161.5Z" fill="#FF5F7A" fill-rule="evenodd"/><path d="M1517 1208.5C1517 1202.7 1521.7 1198 1527.5 1198L1738.5 1198C1744.3 1198 1749 1202.7 1749 1208.5L1749 1208.5C1749 1214.3 1744.3 1219 1738.5 1219L1527.5 1219C1521.7 1219 1517 1214.3 1517 1208.5Z" fill="#615260" fill-rule="evenodd"/><path d="M1517 1284C1517 1277.92 1521.92 1273 1528 1273L1661 1273C1667.08 1273 1672 1277.92 1672 1284L1672 1284C1672 1290.08 1667.08 1295 1661 1295L1528 1295C1521.92 1295 1517 1290.07 1517 1284Z" fill="#98DB7C" fill-rule="evenodd"/><path d="M1517 1406.5C1517 1400.7 1521.7 1396 1527.5 1396L1661.5 1396C1667.3 1396 1672 1400.7 1672 1406.5L1672 1406.5C1672 1412.3 1667.3 1417 1661.5 1417L1527.5 1417C1521.7 1417 1517 1412.3 1517 1406.5Z" fill="#7AD7EE" fill-rule="evenodd"/><path d="M1517 1332.5C1517 1326.7 1521.7 1322 1527.5 1322L1738.5 1322C1744.3 1322 1749 1326.7 1749 1332.5L1749 1332.5C1749 1338.3 1744.3 1343 1738.5 1343L1527.5 1343C1521.7 1343 1517 1338.3 1517 1332.5Z" fill="#615260" fill-rule="evenodd"/><path d="M1517 1455.5C1517 1449.7 1521.7 1445 1527.5 1445L1738.5 1445C1744.3 1445 1749 1449.7 1749 1455.5L1749 1455.5C1749 1461.3 1744.3 1466 1738.5 1466L1527.5 1466C1521.7 1466 1517 1461.3 1517 1455.5Z" fill="#615260" fill-rule="evenodd"/><path d="M1312.83 1185.5 1328.49 1168.88 1370.27 1208.23 1442.41 1131.65 1457.87 1146.21 1370.06 1239.42Z" fill="#98DB7C" fill-rule="evenodd"/><path d="M1312.83 1307.71 1328.49 1291.08 1370.27 1330.43 1442.41 1253.85 1457.87 1268.41 1370.06 1361.62Z" fill="#98DB7C" fill-rule="evenodd"/><path d="M1312.83 1431.36 1328.49 1414.74 1370.27 1454.09 1442.41 1377.51 1457.87 1392.07 1370.06 1485.28Z" fill="#98DB7C" fill-rule="evenodd"/><path d="M1220 819 1197 819 1220 795Z" fill="#DBD8DB" fill-rule="evenodd"/><path d="M1789 1538 1810 1538 1789 1562Z" fill="#DBD8DB" fill-rule="evenodd"/></g></svg>