<?xml version="1.0" encoding="UTF-8"?>
<svg xmlns="http://www.w3.org/2000/svg" id="Layer_1" data-name="Layer 1" viewBox="0 0 24 24">
  <path d="M1.005,9.429c.282-1.955,2-3.429,3.995-3.429,.599,0,1.174,.127,1.711,.377,.25,.116,.359,.414,.242,.664-.116,.251-.413,.36-.664,.242-.404-.188-.837-.283-1.289-.283-1.501,0-2.793,1.105-3.005,2.571-.036,.249-.25,.429-.494,.429-.023,0-.048-.002-.072-.005-.273-.04-.463-.293-.423-.566Zm16.284-3.052c-.25,.116-.359,.414-.242,.664,.116,.251,.413,.36,.664,.242,.404-.188,.837-.283,1.289-.283,1.501,0,2.793,1.105,3.005,2.571,.036,.249,.25,.429,.494,.429,.023,0,.048-.002,.072-.005,.273-.04,.463-.293,.423-.566-.282-1.955-2-3.429-3.995-3.429-.599,0-1.174,.127-1.711,.377Zm-.289-3.377c0-1.103,.897-2,2-2s2,.897,2,2-.897,2-2,2-2-.897-2-2Zm1,0c0,.552,.449,1,1,1s1-.448,1-1-.449-1-1-1-1,.448-1,1Zm-9.571,6.995c.274,.036,.527-.151,.566-.424,.212-1.466,1.504-2.571,3.005-2.571s2.793,1.105,3.005,2.571c.036,.249,.25,.429,.494,.429,.023,0,.048-.002,.072-.005,.273-.04,.463-.293,.423-.566-.282-1.955-2-3.429-3.995-3.429s-3.712,1.474-3.995,3.429c-.04,.273,.15,.526,.423,.566Zm15.56,2.526c-.275,6.437-5.542,11.479-11.989,11.479S.287,18.958,.011,12.521c-.012-.276,.202-.509,.478-.521,.271,.008,.509,.202,.521,.479,.053,1.243,.32,2.423,.746,3.521H6.663c-.353-1.092-.597-2.257-.651-3.478-.012-.276,.201-.51,.477-.521,.272-.031,.509,.2,.522,.477,.055,1.235,.331,2.417,.72,3.522h8.538c.389-1.105,.665-2.287,.72-3.522,.013-.276,.251-.504,.522-.477,.276,.012,.489,.245,.477,.521-.055,1.22-.299,2.386-.651,3.478h4.907c.426-1.098,.693-2.279,.746-3.521,.012-.276,.249-.469,.521-.479,.276,.013,.49,.245,.478,.521Zm-13.23,10.404c-1.02-1.145-2.67-3.257-3.736-5.925H2.204c1.641,3.223,4.81,5.507,8.555,5.925Zm1.241-.137c.762-.798,2.648-2.951,3.877-5.788h-7.755c1.229,2.838,3.115,4.991,3.877,5.788Zm9.796-5.788h-4.819c-1.066,2.668-2.716,4.78-3.736,5.925,3.745-.418,6.914-2.703,8.555-5.925ZM3,3c0-1.103,.897-2,2-2s2,.897,2,2-.897,2-2,2-2-.897-2-2Zm1,0c0,.552,.449,1,1,1s1-.448,1-1-.449-1-1-1-1,.448-1,1Zm5.615-.5c0-1.379,1.122-2.5,2.5-2.5s2.5,1.121,2.5,2.5-1.122,2.5-2.5,2.5-2.5-1.121-2.5-2.5Zm1,0c0,.827,.673,1.5,1.5,1.5s1.5-.673,1.5-1.5-.673-1.5-1.5-1.5-1.5,.673-1.5,1.5Z"/>
</svg>
