<?xml version="1.0" encoding="UTF-8"?>
<svg xmlns="http://www.w3.org/2000/svg" id="Layer_1" data-name="Layer 1" viewBox="0 0 24 24">
  <path d="m19.487,5c1.379,0,2.5-1.121,2.5-2.5s-1.121-2.5-2.5-2.5-2.5,1.121-2.5,2.5,1.121,2.5,2.5,2.5Zm0-4c.827,0,1.5.673,1.5,1.5s-.673,1.5-1.5,1.5-1.5-.673-1.5-1.5.673-1.5,1.5-1.5Zm4.513,8.5v4c0,1.391-.822,2.585-2,3.149v6.851c0,.276-.224.5-.5.5s-.5-.224-.5-.5v-6.551c-.165.024-.329.051-.5.051h-2.5v6.5c0,.276-.224.5-.5.5s-.5-.224-.5-.5v-14c0-.276.224-.5.5-.5s.5.224.5.5v6.5h2.5c1.379,0,2.5-1.121,2.5-2.5v-4c0-1.379-1.121-2.5-2.5-2.5h-2.823c-.639,0-1.247-.241-1.712-.679L10.157.864c-.201-.189-.211-.506-.021-.707.19-.201.506-.21.707-.021l5.808,5.457c.278.263.644.407,1.026.407h2.823c1.93,0,3.5,1.57,3.5,3.5Zm-17.157,7.136c.201.189.211.506.021.707-.099.104-.231.157-.364.157-.123,0-.246-.045-.343-.136l-2.157-2.033v8.168c0,.276-.224.5-.5.5s-.5-.224-.5-.5v-8.169l-2.157,2.033c-.201.189-.517.181-.707-.021-.189-.201-.18-.518.021-.707l2.382-2.244c.496-.498,1.415-.509,1.933.011l2.371,2.233Zm7-5c.201.189.211.506.021.707-.099.104-.231.157-.364.157-.123,0-.246-.045-.343-.136l-2.157-2.033v13.168c0,.276-.224.5-.5.5s-.5-.224-.5-.5v-13.169l-2.157,2.033c-.201.188-.518.18-.707-.021s-.18-.518.021-.707l2.382-2.244c.496-.498,1.415-.509,1.933.011l2.371,2.233Z"/>
</svg>
