<?xml version="1.0" encoding="UTF-8"?>
<svg xmlns="http://www.w3.org/2000/svg" id="Layer_1" data-name="Layer 1" viewBox="0 0 24 24">
  <path d="m23.854,5.646L18.354.146c-.195-.195-.512-.195-.707,0s-.195.512,0,.707l2.51,2.51-2.41,2.191-.529-.529c-1.363-1.363-3.583-1.364-4.948-.001l-7.655,7.658c-1.041,1.039-1.614,2.421-1.614,3.893v3.719L.146,23.146c-.195.195-.195.512,0,.707.098.098.226.146.354.146s.256-.049.354-.146l2.854-2.854h3.725c1.468,0,2.848-.571,3.886-1.608l7.656-7.658c.662-.661,1.026-1.54,1.026-2.476,0-.935-.364-1.814-1.025-2.476l-.52-.52,2.41-2.191,2.282,2.282c.098.098.226.146.354.146s.256-.049.354-.146c.195-.195.195-.512,0-.707Zm-4.854,3.612c0,.668-.261,1.296-.733,1.768l-7.656,7.658c-.849.848-1.978,1.315-3.179,1.315h-3.432v-3.426c0-1.034.383-2.036,1.033-2.834l2.613,2.613c.098.098.226.146.354.146s.256-.049.354-.146c.195-.195.195-.512,0-.707l-2.645-2.645,2.293-2.293,2.646,2.646c.098.098.226.146.354.146s.256-.049.354-.146c.195-.195.195-.512,0-.707l-2.646-2.646,2.293-2.293,2.646,2.646c.098.098.226.146.354.146s.256-.049.354-.146c.195-.195.195-.512,0-.707l-2.646-2.646,1.269-1.269c.975-.974,2.56-.974,3.534,0l1.757,1.757c.473.472.732,1.101.732,1.769Z"/>
</svg>
