<svg version="1.1" id="Layer_1" xmlns="http://www.w3.org/2000/svg" xmlns:xlink="http://www.w3.org/1999/xlink" x="0px" y="0px"
	 width="100%" viewBox="0 0 200 200" enable-background="new 0 0 200 200" xml:space="preserve">
<path fill="#000000" opacity="1.000000" stroke="none" 
	d="
M1.000000,74.000000 
	C1.000000,49.333340 1.000000,25.166677 1.000000,1.000013 
	C67.666649,1.000009 134.333298,1.000009 200.999954,1.000004 
	C200.999969,67.666634 200.999969,134.333267 200.999985,200.999908 
	C134.333389,200.999939 67.666771,200.999939 1.000080,200.999969 
	C1.000000,158.833328 1.000000,116.666664 1.000000,74.000000 
M27.087250,4.006555 
	C26.293995,8.016857 25.500738,12.027160 24.096041,16.318487 
	C22.744101,17.452520 21.392160,18.586552 19.280230,20.227430 
	C19.184645,40.342457 19.082006,60.457466 19.033783,80.572609 
	C19.032568,81.079926 19.630873,81.588692 20.202194,82.712234 
	C21.466787,83.546494 22.731380,84.380753 24.127007,85.655243 
	C24.322681,85.925888 24.587492,86.058990 25.004135,86.515350 
	C25.004135,86.515350 25.128750,86.966637 24.958702,87.894554 
	C25.014914,123.604919 25.071125,159.315277 25.077194,195.565323 
	C25.375622,195.749039 25.674049,195.932739 25.990440,196.798141 
	C26.621742,197.209076 27.253044,197.620010 28.044401,198.546661 
	C28.352327,198.656113 28.660252,198.765579 29.896334,199.042374 
	C63.649323,199.047211 97.402328,199.071747 131.155304,199.048248 
	C147.112213,199.037140 163.069046,198.934067 179.565247,198.922821 
	C179.745865,198.623596 179.926498,198.324356 180.713486,198.014221 
	C181.156708,197.727356 181.599915,197.440491 182.550674,196.962219 
	C182.656281,196.652649 182.761902,196.343094 183.024368,195.233795 
	C182.973419,194.151947 182.922470,193.070114 183.008408,191.061295 
	C183.012314,164.965317 183.038635,138.869324 183.013611,112.773376 
	C182.990021,88.177353 182.912323,63.581383 182.940033,38.441196 
	C182.638275,38.254574 182.336517,38.067951 181.900208,37.388119 
	C181.613907,37.217659 181.327591,37.047199 180.818542,36.250061 
	C170.253067,25.817801 159.687607,15.385541 148.888809,4.372028 
	C148.297226,4.236176 147.705658,4.100325 146.951447,3.449048 
	C146.643112,3.347445 146.334793,3.245842 145.098083,2.982737 
	C107.402054,3.025226 69.706017,3.067715 31.256720,2.958883 
	C30.494898,3.016342 29.733076,3.073801 28.433857,3.081237 
	C28.252476,3.379162 28.071093,3.677088 27.087250,4.006555 
z"/>
<path fill="#ECE9EB" opacity="1.000000" stroke="none" 
	d="
M147.114075,3.964473 
	C147.705658,4.100325 148.297226,4.236176 148.699860,4.955452 
	C148.353409,15.277319 148.048309,25.018681 148.240814,34.750202 
	C148.262817,35.862091 151.032272,37.784550 152.593445,37.853920 
	C160.029739,38.184361 167.490097,38.083164 174.938736,37.953655 
	C176.978546,37.918194 179.007401,37.252968 181.041290,36.876740 
	C181.327591,37.047199 181.613907,37.217659 182.054916,37.853962 
	C182.349442,38.616199 182.565704,38.838058 182.858429,38.985390 
	C182.912323,63.581383 182.990021,88.177353 183.013611,112.773376 
	C183.038635,138.869324 183.012314,164.965317 182.479538,191.533386 
	C136.687515,192.003998 91.424355,192.010056 46.161201,191.994705 
	C37.168148,191.991653 32.006290,186.788330 32.004559,177.742218 
	C31.998665,146.956665 32.016922,116.171104 32.485481,85.297241 
	C48.938728,85.190300 64.932503,85.145432 80.926163,85.170532 
	C85.183098,85.177216 88.090195,83.811127 88.339523,78.644501 
	C88.581131,60.998886 88.667831,43.714329 88.687248,26.429701 
	C88.696564,18.129591 86.661377,16.154720 78.379311,16.122456 
	C62.922623,16.062243 47.465931,16.001564 32.006294,15.482777 
	C32.005558,11.053050 32.007771,7.081627 32.009987,3.110204 
	C69.706017,3.067715 107.402054,3.025226 145.696930,3.253782 
	C146.541092,3.722448 146.813858,3.868997 147.114075,3.964473 
M135.149338,37.185390 
	C134.396301,33.439102 131.789993,32.033958 128.304901,32.030010 
	C121.520645,32.022327 114.736237,32.149193 107.207199,32.089443 
	C102.949387,32.400486 100.749969,34.854431 101.110474,38.949005 
	C101.454575,42.857155 104.210312,44.636173 108.043709,44.652214 
	C114.863342,44.680748 121.687592,44.803787 128.501297,44.599766 
	C132.554932,44.478386 135.592468,42.822258 135.149338,37.185390 
M154.141983,116.910301 
	C154.972504,116.900612 156.033142,117.213921 156.588593,116.818176 
	C158.018784,115.799187 159.225311,114.466248 160.521194,113.258759 
	C159.185837,112.285233 157.938812,111.134010 156.480057,110.408676 
	C155.679306,110.010529 154.521591,110.326904 153.524841,110.326851 
	C138.407013,110.326126 123.289192,110.324638 108.171371,110.329346 
	C106.843132,110.329765 105.309608,109.963493 104.239716,110.500832 
	C102.961250,111.142906 101.552269,112.442001 101.231323,113.716293 
	C101.050179,114.435486 102.772781,116.076302 103.946793,116.575783 
	C105.233604,117.123253 106.876038,116.898857 108.363617,116.900482 
	C123.315292,116.916771 138.266998,116.910362 154.141983,116.910301 
M102.704109,66.936096 
	C102.301788,68.357605 101.144470,70.303436 101.679565,71.073921 
	C102.424515,72.146584 104.433098,72.824059 105.906715,72.834442 
	C122.529495,72.951500 139.154617,72.995819 155.775101,72.767990 
	C157.371429,72.746101 158.940872,70.763626 160.522797,69.691315 
	C158.957199,68.572510 157.399017,66.494164 155.824890,66.482010 
	C138.381622,66.347435 120.935875,66.533150 102.704109,66.936096 
M136.499939,172.967087 
	C126.338684,172.967590 116.173668,172.829880 106.019882,173.105515 
	C104.339981,173.151123 102.709145,175.004272 101.055634,176.022095 
	C102.562149,177.218811 104.053719,179.433777 105.577469,179.456116 
	C122.397774,179.702957 139.224442,179.700745 156.044647,179.449142 
	C157.532684,179.426880 158.987381,177.175613 160.457565,175.959610 
	C158.968353,174.964157 157.521149,173.192963 155.982559,173.109680 
	C149.837082,172.777008 143.663193,172.969147 136.499939,172.967087 
M119.501968,141.839630 
	C115.008186,141.840134 110.491005,141.577637 106.032501,141.974411 
	C104.320068,142.126801 102.741371,143.781982 101.101738,144.752396 
	C102.816826,145.835373 104.518471,147.833572 106.249084,147.858994 
	C122.556328,148.098587 138.868515,148.001480 155.179276,148.001801 
	C157.546646,148.001846 160.555801,148.151917 160.040482,144.856995 
	C159.846481,143.616547 156.753586,142.014435 154.950363,141.973297 
	C143.472229,141.711472 131.985184,141.839767 119.501968,141.839630 
M67.293579,180.024384 
	C72.352356,174.967743 77.581512,170.064453 82.360382,164.755844 
	C83.698151,163.269775 84.902657,159.649124 84.103287,158.634415 
	C81.774590,155.678421 79.841774,158.635590 78.144424,160.288803 
	C73.301903,165.005417 68.525436,169.789856 62.330296,175.927322 
	C60.288864,173.109787 58.916313,170.491562 56.847225,168.660339 
	C55.787964,167.722855 53.482361,168.193588 51.740044,168.027878 
	C51.976360,169.650284 51.676651,171.694183 52.555271,172.811523 
	C54.699184,175.537918 57.419483,177.805466 59.849602,180.314056 
	C62.113007,182.650543 64.379227,182.871368 67.293579,180.024384 
M81.003075,95.120056 
	C75.154129,100.660400 69.305191,106.200745 62.718887,112.439545 
	C60.593365,109.954842 58.878399,107.416992 56.613625,105.543938 
	C55.593391,104.700165 53.476433,105.182472 51.857094,105.063103 
	C52.014118,106.679428 51.584137,108.775192 52.438854,109.821678 
	C54.946289,112.891724 57.778328,115.780479 60.884254,118.232216 
	C61.965385,119.085609 64.923882,119.214096 65.822304,118.379318 
	C72.020042,112.620590 78.034096,106.645264 83.815376,100.466507 
	C86.135727,97.986626 85.805496,95.551636 81.003075,95.120056 
M68.084290,138.596497 
	C66.875443,140.384613 65.666588,142.172729 64.457741,143.960861 
	C63.616116,144.002411 62.774494,144.043961 61.932869,144.085510 
	C60.278271,141.807678 58.897335,139.227890 56.855442,137.377411 
	C55.809929,136.429901 53.581825,136.787308 51.888199,136.554962 
	C52.101551,138.315552 51.723938,140.522675 52.648293,141.746048 
	C54.728252,144.498825 57.481655,146.736679 59.908104,149.235443 
	C62.267639,151.665314 64.380753,151.433014 66.695114,149.061356 
	C72.139618,143.482025 77.829887,138.134888 83.098419,132.397842 
	C84.161453,131.240265 83.800453,128.774933 84.095985,126.912537 
	C82.334930,127.245674 80.090759,127.009659 78.902840,128.018005 
	C75.247162,131.121063 71.995476,134.700058 68.084290,138.596497 
M135.169739,129.055939 
	C125.685997,129.056351 116.195335,128.867950 106.724304,129.215210 
	C104.811462,129.285339 102.972969,131.383286 101.100197,132.546341 
	C102.886116,133.641205 104.643692,135.624756 106.462685,135.682785 
	C116.269211,135.995651 126.097290,136.014679 135.902222,135.677780 
	C137.903152,135.609024 139.836868,133.583862 141.801559,132.460541 
	C139.893234,131.325836 137.984909,130.191147 135.169739,129.055939 
M118.508018,160.121628 
	C114.524673,160.125717 110.496239,159.779388 106.577232,160.283569 
	C104.653053,160.531097 102.931763,162.355713 101.118645,163.466583 
	C102.989014,164.630493 104.826599,166.733856 106.735245,166.800446 
	C116.515823,167.141708 126.320930,167.139984 136.101883,166.804077 
	C138.039719,166.737534 139.909332,164.683914 141.810410,163.546646 
	C139.852371,162.406036 137.963150,160.454865 135.922958,160.281601 
	C130.484940,159.819794 124.981972,160.122925 118.508018,160.121628 
M121.499527,53.995907 
	C116.175026,53.996990 110.836159,53.782043 105.535057,54.134830 
	C104.005608,54.236614 102.584839,55.971577 101.114243,56.957783 
	C102.489853,58.020828 103.844429,59.972607 105.244423,60.005756 
	C116.053711,60.261730 126.873894,60.246506 137.684433,60.018356 
	C139.025528,59.990059 140.329849,58.218864 141.651199,57.255287 
	C140.258591,56.170734 138.930939,54.267475 137.461517,54.150867 
	C132.500885,53.757206 127.489937,53.997810 121.499527,53.995907 
M136.995712,104.126968 
	C138.543076,103.014000 140.090424,101.901024 141.637787,100.788048 
	C139.948380,99.816254 138.280396,98.049820 136.566055,98.003632 
	C126.593719,97.734955 116.606461,97.724113 106.634575,97.999870 
	C104.767670,98.051498 101.517830,99.620193 101.372612,100.793938 
	C100.927544,104.391220 104.179771,104.110222 106.649307,104.118790 
	C116.462410,104.152847 126.275696,104.132744 136.995712,104.126968 
M103.358650,79.262924 
	C102.677422,80.593857 101.996201,81.924789 101.314980,83.255722 
	C102.722023,83.887306 104.121033,85.044731 105.537384,85.066353 
	C115.850800,85.223793 126.167694,85.150536 136.483490,85.155457 
	C138.852661,85.156593 141.862549,85.283211 141.367661,82.038116 
	C141.177139,80.788811 138.000992,79.177513 136.151718,79.133377 
	C125.510483,78.879440 114.859215,79.046005 103.358650,79.262924 
z"/>
<path fill="#DCD7DA" opacity="1.000000" stroke="none" 
	d="
M32.025963,85.385544 
	C32.016922,116.171104 31.998665,146.956665 32.004559,177.742218 
	C32.006290,186.788330 37.168148,191.991653 46.161201,191.994705 
	C91.424355,192.010056 136.687515,192.003998 182.411087,191.996857 
	C182.922470,193.070114 182.973419,194.151947 182.746307,195.765320 
	C182.294205,196.566406 182.152496,196.851990 182.043121,197.153610 
	C181.599915,197.440491 181.156708,197.727356 180.196960,198.121201 
	C179.362244,198.341461 179.144089,198.556290 179.025925,198.872650 
	C163.069046,198.934067 147.112213,199.037140 131.155304,199.048248 
	C97.402328,199.071747 63.649323,199.047211 29.308098,198.757599 
	C28.458164,198.293762 28.179657,198.146469 27.884344,198.030960 
	C27.253044,197.620010 26.621742,197.209076 25.879997,196.242767 
	C25.658655,195.366699 25.444582,195.146103 25.127335,195.025650 
	C25.071125,159.315277 25.014914,123.604919 25.178074,87.326492 
	C25.238773,86.523811 25.080105,86.289177 24.921436,86.054550 
	C24.587492,86.058990 24.322681,85.925888 24.503952,85.378685 
	C27.262587,85.196594 29.644278,85.291069 32.025963,85.385544 
z"/>
<path fill="#FB4556" opacity="1.000000" stroke="none" 
	d="
M32.485481,85.297241 
	C29.644278,85.291069 27.262587,85.196594 24.438435,85.158569 
	C22.731380,84.380753 21.466787,83.546494 20.121544,81.931931 
	C20.040670,60.674614 20.040445,40.197598 20.040220,19.720585 
	C21.392160,18.586552 22.744101,17.452520 24.687557,16.311893 
	C25.468132,16.397051 25.657188,16.488798 25.888025,17.001596 
	C25.950575,34.228409 25.961916,51.034191 25.996269,67.839928 
	C26.012386,75.724876 29.294641,78.980598 37.239223,78.989044 
	C54.211792,79.007103 71.184387,79.001457 88.156975,79.005524 
	C88.090195,83.811127 85.183098,85.177216 80.926163,85.170532 
	C64.932503,85.145432 48.938728,85.190300 32.485481,85.297241 
z"/>
<path fill="#DCD9DC" opacity="1.000000" stroke="none" 
	d="
M180.929916,36.563400 
	C179.007401,37.252968 176.978546,37.918194 174.938736,37.953655 
	C167.490097,38.083164 160.029739,38.184361 152.593445,37.853920 
	C151.032272,37.784550 148.262817,35.862091 148.240814,34.750202 
	C148.048309,25.018681 148.353409,15.277319 148.816528,5.246079 
	C159.687607,15.385541 170.253067,25.817801 180.929916,36.563400 
z"/>
<path fill="#DBD8DB" opacity="1.000000" stroke="none" 
	d="
M25.846245,16.580547 
	C25.657188,16.488798 25.468132,16.397051 24.993279,16.171383 
	C25.500738,12.027160 26.293995,8.016857 27.699272,3.885322 
	C28.632751,3.658947 28.852737,3.448003 28.971254,3.131259 
	C29.733076,3.073801 30.494898,3.016342 31.633350,3.034544 
	C32.007771,7.081627 32.005558,11.053050 31.566967,15.542562 
	C29.369143,16.233950 27.607693,16.407249 25.846245,16.580547 
z"/>
<path fill="#FDA2AB" opacity="1.000000" stroke="none" 
	d="
M19.660225,19.974007 
	C20.040445,40.197598 20.040670,60.674614 19.995232,81.624207 
	C19.630873,81.588692 19.032568,81.079926 19.033783,80.572609 
	C19.082006,60.457466 19.184645,40.342457 19.660225,19.974007 
z"/>
<path fill="#F6F5F6" opacity="1.000000" stroke="none" 
	d="
M24.962786,86.284950 
	C25.080105,86.289177 25.238773,86.523811 25.263096,86.862534 
	C25.128750,86.966637 25.004135,86.515350 24.962786,86.284950 
z"/>
<path fill="#F5F4F5" opacity="1.000000" stroke="none" 
	d="
M182.899231,38.713295 
	C182.565704,38.838058 182.349442,38.616199 182.122192,38.100567 
	C182.336517,38.067951 182.638275,38.254574 182.899231,38.713295 
z"/>
<path fill="#FAF9FA" opacity="1.000000" stroke="none" 
	d="
M147.032761,3.706761 
	C146.813858,3.868997 146.541092,3.722448 146.161118,3.334533 
	C146.334793,3.245842 146.643112,3.347445 147.032761,3.706761 
z"/>
<path fill="#FAF9FA" opacity="1.000000" stroke="none" 
	d="
M28.702557,3.106248 
	C28.852737,3.448003 28.632751,3.658947 28.100502,3.869552 
	C28.071093,3.677088 28.252476,3.379162 28.702557,3.106248 
z"/>
<path fill="#F6F5F6" opacity="1.000000" stroke="none" 
	d="
M25.102264,195.295486 
	C25.444582,195.146103 25.658655,195.366699 25.871016,195.901917 
	C25.674049,195.932739 25.375622,195.749039 25.102264,195.295486 
z"/>
<path fill="#F5F4F5" opacity="1.000000" stroke="none" 
	d="
M182.296906,197.057922 
	C182.152496,196.851990 182.294205,196.566406 182.667877,196.165192 
	C182.761902,196.343094 182.656281,196.652649 182.296906,197.057922 
z"/>
<path fill="#F6F5F6" opacity="1.000000" stroke="none" 
	d="
M27.964371,198.288818 
	C28.179657,198.146469 28.458164,198.293762 28.844021,198.673920 
	C28.660252,198.765579 28.352327,198.656113 27.964371,198.288818 
z"/>
<path fill="#F6F5F6" opacity="1.000000" stroke="none" 
	d="
M179.295593,198.897736 
	C179.144089,198.556290 179.362244,198.341461 179.893768,198.126648 
	C179.926498,198.324356 179.745865,198.623596 179.295593,198.897736 
z"/>
<path fill="#FF627C" opacity="1.000000" stroke="none" 
	d="
M25.888025,17.001598 
	C27.607693,16.407249 29.369143,16.233950 31.569916,16.000866 
	C47.465931,16.001564 62.922623,16.062243 78.379311,16.122456 
	C86.661377,16.154720 88.696564,18.129591 88.687248,26.429701 
	C88.667831,43.714329 88.581131,60.998886 88.339523,78.644501 
	C71.184387,79.001457 54.211792,79.007103 37.239223,78.989044 
	C29.294641,78.980598 26.012386,75.724876 25.996269,67.839928 
	C25.961916,51.034191 25.950575,34.228409 25.888025,17.001598 
M67.251320,56.999893 
	C72.221336,57.608139 72.958244,54.722984 73.003586,50.617783 
	C73.052414,46.197514 71.394859,44.056431 66.893402,44.255329 
	C64.813423,44.347237 62.726021,44.271004 61.494812,44.271004 
	C57.952332,40.043037 64.299393,32.565701 54.844021,31.849941 
	C43.967785,31.026627 49.502106,39.652977 47.824554,42.757526 
	C43.636387,46.759792 35.330971,40.453426 35.015270,50.428112 
	C34.671352,61.294308 43.484665,54.949722 46.944088,57.338741 
	C50.049835,61.381783 43.723766,69.211243 53.196178,69.901817 
	C64.166000,70.701546 58.261230,61.460201 61.019955,57.000122 
	C62.730640,57.000122 64.540009,57.000122 67.251320,56.999893 
z"/>
<path fill="#70626F" opacity="1.000000" stroke="none" 
	d="
M153.680328,116.910316 
	C138.266998,116.910362 123.315292,116.916771 108.363617,116.900482 
	C106.876038,116.898857 105.233604,117.123253 103.946793,116.575783 
	C102.772781,116.076302 101.050179,114.435486 101.231323,113.716293 
	C101.552269,112.442001 102.961250,111.142906 104.239716,110.500832 
	C105.309608,109.963493 106.843132,110.329765 108.171371,110.329346 
	C123.289192,110.324638 138.407013,110.326126 153.524841,110.326851 
	C154.521591,110.326904 155.679306,110.010529 156.480057,110.408676 
	C157.938812,111.134010 159.185837,112.285233 160.521194,113.258759 
	C159.225311,114.466248 158.018784,115.799187 156.588593,116.818176 
	C156.033142,117.213921 154.972504,116.900612 153.680328,116.910316 
z"/>
<path fill="#70626F" opacity="1.000000" stroke="none" 
	d="
M103.097458,66.784180 
	C120.935875,66.533150 138.381622,66.347435 155.824890,66.482010 
	C157.399017,66.494164 158.957199,68.572510 160.522797,69.691315 
	C158.940872,70.763626 157.371429,72.746101 155.775101,72.767990 
	C139.154617,72.995819 122.529495,72.951500 105.906715,72.834442 
	C104.433098,72.824059 102.424515,72.146584 101.679565,71.073921 
	C101.144470,70.303436 102.301788,68.357605 103.097458,66.784180 
z"/>
<path fill="#6B5D6A" opacity="1.000000" stroke="none" 
	d="
M136.999878,172.967102 
	C143.663193,172.969147 149.837082,172.777008 155.982559,173.109680 
	C157.521149,173.192963 158.968353,174.964157 160.457565,175.959610 
	C158.987381,177.175613 157.532684,179.426880 156.044647,179.449142 
	C139.224442,179.700745 122.397774,179.702957 105.577469,179.456116 
	C104.053719,179.433777 102.562149,177.218811 101.055634,176.022095 
	C102.709145,175.004272 104.339981,173.151123 106.019882,173.105515 
	C116.173668,172.829880 126.338684,172.967590 136.999878,172.967102 
z"/>
<path fill="#625361" opacity="1.000000" stroke="none" 
	d="
M120.001526,141.839584 
	C131.985184,141.839767 143.472229,141.711472 154.950363,141.973297 
	C156.753586,142.014435 159.846481,143.616547 160.040482,144.856995 
	C160.555801,148.151917 157.546646,148.001846 155.179276,148.001801 
	C138.868515,148.001480 122.556328,148.098587 106.249084,147.858994 
	C104.518471,147.833572 102.816826,145.835373 101.101746,144.752411 
	C102.741371,143.781982 104.320068,142.126801 106.032501,141.974411 
	C110.491005,141.577637 115.008186,141.840134 120.001526,141.839584 
z"/>
<path fill="#9CDC81" opacity="1.000000" stroke="none" 
	d="
M67.030640,180.287750 
	C64.379227,182.871368 62.113007,182.650543 59.849602,180.314056 
	C57.419483,177.805466 54.699184,175.537918 52.555271,172.811523 
	C51.676651,171.694183 51.976360,169.650284 51.740044,168.027878 
	C53.482361,168.193588 55.787964,167.722855 56.847225,168.660339 
	C58.916313,170.491562 60.288864,173.109787 62.330296,175.927322 
	C68.525436,169.789856 73.301903,165.005417 78.144424,160.288803 
	C79.841774,158.635590 81.774590,155.678421 84.103287,158.634415 
	C84.902657,159.649124 83.698151,163.269775 82.360382,164.755844 
	C77.581512,170.064453 72.352356,174.967743 67.030640,180.287750 
z"/>
<path fill="#9CDC81" opacity="1.000000" stroke="none" 
	d="
M81.379646,95.052185 
	C85.805496,95.551636 86.135727,97.986626 83.815376,100.466507 
	C78.034096,106.645264 72.020042,112.620590 65.822304,118.379318 
	C64.923882,119.214096 61.965385,119.085609 60.884254,118.232216 
	C57.778328,115.780479 54.946289,112.891724 52.438854,109.821678 
	C51.584137,108.775192 52.014118,106.679428 51.857094,105.063095 
	C53.476433,105.182472 55.593391,104.700165 56.613625,105.543938 
	C58.878399,107.416992 60.593365,109.954842 62.718887,112.439545 
	C69.305191,106.200745 75.154129,100.660400 81.379646,95.052185 
z"/>
<path fill="#9BDC81" opacity="1.000000" stroke="none" 
	d="
M68.335548,138.345306 
	C71.995476,134.700058 75.247162,131.121063 78.902840,128.018005 
	C80.090759,127.009659 82.334930,127.245674 84.095993,126.912537 
	C83.800453,128.774933 84.161453,131.240265 83.098419,132.397842 
	C77.829887,138.134888 72.139618,143.482025 66.695114,149.061356 
	C64.380753,151.433014 62.267639,151.665314 59.908104,149.235443 
	C57.481655,146.736679 54.728252,144.498825 52.648293,141.746048 
	C51.723938,140.522675 52.101551,138.315552 51.888199,136.554962 
	C53.581825,136.787308 55.809929,136.429901 56.855442,137.377411 
	C58.897335,139.227890 60.278271,141.807678 61.932869,144.085510 
	C62.774494,144.043961 63.616116,144.002411 64.457741,143.960861 
	C65.666588,142.172729 66.875443,140.384613 68.335548,138.345306 
z"/>
<path fill="#A1DC88" opacity="1.000000" stroke="none" 
	d="
M135.623154,129.056198 
	C137.984909,130.191147 139.893234,131.325836 141.801559,132.460541 
	C139.836868,133.583862 137.903152,135.609024 135.902222,135.677780 
	C126.097290,136.014679 116.269211,135.995651 106.462685,135.682785 
	C104.643692,135.624756 102.886116,133.641205 101.100197,132.546341 
	C102.972969,131.383286 104.811462,129.285339 106.724304,129.215210 
	C116.195335,128.867950 125.685997,129.056351 135.623154,129.056198 
z"/>
<path fill="#86D9EE" opacity="1.000000" stroke="none" 
	d="
M119.006424,160.121796 
	C124.981972,160.122925 130.484940,159.819794 135.922958,160.281601 
	C137.963150,160.454865 139.852371,162.406036 141.810410,163.546631 
	C139.909332,164.683914 138.039719,166.737534 136.101883,166.804077 
	C126.320930,167.139984 116.515823,167.141708 106.735245,166.800446 
	C104.826599,166.733856 102.989014,164.630493 101.118652,163.466583 
	C102.931763,162.355713 104.653053,160.531097 106.577232,160.283569 
	C110.496239,159.779388 114.524673,160.125717 119.006424,160.121796 
z"/>
<path fill="#FA4F5F" opacity="1.000000" stroke="none" 
	d="
M135.120987,37.944817 
	C135.592468,42.822258 132.554932,44.478386 128.501297,44.599766 
	C121.687592,44.803787 114.863342,44.680748 108.043709,44.652214 
	C104.210312,44.636173 101.454575,42.857155 101.110474,38.949005 
	C100.749969,34.854431 102.949387,32.400486 107.600342,32.523369 
	C108.493774,36.939960 111.097130,38.049263 114.691719,38.010796 
	C121.500931,37.937920 128.311172,37.961380 135.120987,37.944817 
z"/>
<path fill="#756774" opacity="1.000000" stroke="none" 
	d="
M121.998871,53.995903 
	C127.489937,53.997810 132.500885,53.757206 137.461517,54.150867 
	C138.930939,54.267475 140.258591,56.170734 141.651199,57.255287 
	C140.329849,58.218864 139.025528,59.990059 137.684433,60.018356 
	C126.873894,60.246506 116.053711,60.261730 105.244423,60.005756 
	C103.844429,59.972607 102.489853,58.020828 101.114243,56.957787 
	C102.584839,55.971577 104.005608,54.236614 105.535057,54.134830 
	C110.836159,53.782043 116.175026,53.996990 121.998871,53.995903 
z"/>
<path fill="#FF607B" opacity="1.000000" stroke="none" 
	d="
M136.542313,104.129837 
	C126.275696,104.132744 116.462410,104.152847 106.649307,104.118790 
	C104.179771,104.110222 100.927544,104.391220 101.372612,100.793938 
	C101.517830,99.620193 104.767670,98.051498 106.634575,97.999870 
	C116.606461,97.724113 126.593719,97.734955 136.566055,98.003632 
	C138.280396,98.049820 139.948380,99.816254 141.637787,100.788048 
	C140.090424,101.901024 138.543076,103.014000 136.542313,104.129837 
z"/>
<path fill="#746673" opacity="1.000000" stroke="none" 
	d="
M103.784996,79.166473 
	C114.859215,79.046005 125.510483,78.879440 136.151718,79.133377 
	C138.000992,79.177513 141.177139,80.788811 141.367661,82.038116 
	C141.862549,85.283211 138.852661,85.156593 136.483490,85.155457 
	C126.167694,85.150536 115.850800,85.223793 105.537384,85.066353 
	C104.121033,85.044731 102.722023,83.887306 101.314980,83.255722 
	C101.996201,81.924789 102.677422,80.593857 103.784996,79.166473 
z"/>
<path fill="#FF5F7A" opacity="1.000000" stroke="none" 
	d="
M135.135162,37.565102 
	C128.311172,37.961380 121.500931,37.937920 114.691719,38.010796 
	C111.097130,38.049263 108.493774,36.939960 107.972687,32.588814 
	C114.736237,32.149193 121.520645,32.022327 128.304901,32.030010 
	C131.789993,32.033958 134.396301,33.439102 135.135162,37.565102 
z"/>
<path fill="#F0EBED" opacity="1.000000" stroke="none" 
	d="
M66.800354,57.000008 
	C64.540009,57.000122 62.730640,57.000122 61.019955,57.000122 
	C58.261230,61.460201 64.166000,70.701546 53.196178,69.901817 
	C43.723766,69.211243 50.049835,61.381783 46.944088,57.338741 
	C43.484665,54.949722 34.671352,61.294308 35.015270,50.428112 
	C35.330971,40.453426 43.636387,46.759792 47.824554,42.757526 
	C49.502106,39.652977 43.967785,31.026627 54.844021,31.849941 
	C64.299393,32.565701 57.952332,40.043037 61.494812,44.271004 
	C62.726021,44.271004 64.813423,44.347237 66.893402,44.255329 
	C71.394859,44.056431 73.052414,46.197514 73.003586,50.617783 
	C72.958244,54.722984 72.221336,57.608139 66.800354,57.000008 
z"/>
</svg>