<svg width="1073" height="1067" xmlns="http://www.w3.org/2000/svg" xmlns:xlink="http://www.w3.org/1999/xlink" xml:space="preserve" overflow="hidden"><defs><clipPath id="clip0"><rect x="835" y="589" width="1073" height="1067"/></clipPath></defs><g clip-path="url(#clip0)" transform="translate(-835 -589)"><path d="M1095 623 1614 623C1757.59 623 1874 739.406 1874 883L1874 1143 835 1143 835 883C835 739.406 951.406 623 1095 623Z" fill="#FB4455" fill-rule="evenodd"/><path d="M1614 1656 1095 1656C951.406 1656 835 1539.59 835 1396L835 1136 1874 1136 1874 1396C1874 1539.59 1757.59 1656 1614 1656Z" fill="#DBD8DB" fill-rule="evenodd"/><path d="M1129 589 1648 589C1791.59 589 1908 705.406 1908 849L1908 1109 869 1109 869 849C869 705.406 985.406 589 1129 589Z" fill="#FF5F7A" fill-rule="evenodd"/><path d="M1648 1622 1129 1622C985.406 1622 869 1505.59 869 1362L869 1102 1908 1102 1908 1362C1908 1505.59 1791.59 1622 1648 1622Z" fill="#ECEAEC" fill-rule="evenodd"/><path d="M1183 791.274 1328.27 791.274 1328.27 646 1448.73 646 1448.73 791.274 1594 791.274 1594 907.725 1448.73 907.725 1448.73 1053 1328.27 1053 1328.27 907.725 1183 907.725Z" fill="#ECEAEC" fill-rule="evenodd"/><path d="M951.631 1349.03 999.377 1298.35 1074.71 1369.31 1253.1 1179.93 1300.58 1224.66 1074.45 1464.72Z" fill="#98DB7C" fill-rule="evenodd"/><path d="M1353 1400.17C1353 1394.55 1357.55 1390 1363.17 1390L1732.83 1390C1738.45 1390 1743 1394.55 1743 1400.17L1743 1440.83C1743 1446.45 1738.45 1451 1732.83 1451L1363.17 1451C1357.55 1451 1353 1446.45 1353 1440.83Z" fill="#FF5F7A" fill-rule="evenodd"/><path d="M1353 1287.17C1353 1281.55 1357.55 1277 1363.17 1277L1667.83 1277C1673.45 1277 1678 1281.55 1678 1287.17L1678 1327.83C1678 1333.45 1673.45 1338 1667.83 1338L1363.17 1338C1357.55 1338 1353 1333.45 1353 1327.83Z" fill="#7AD7EE" fill-rule="evenodd"/><path d="M1356 1174C1356 1168.48 1360.48 1164 1366 1164L1788 1164C1793.52 1164 1798 1168.48 1798 1174L1798 1214C1798 1219.52 1793.52 1224 1788 1224L1366 1224C1360.48 1224 1356 1219.52 1356 1214Z" fill="#615260" fill-rule="evenodd"/><path d="M1353 1513C1353 1507.48 1357.48 1503 1363 1503L1759 1503C1764.52 1503 1769 1507.48 1769 1513L1769 1553C1769 1558.52 1764.52 1563 1759 1563L1363 1563C1357.48 1563 1353 1558.52 1353 1553Z" fill="#98DB7C" fill-rule="evenodd"/><path d="M869 1136 835 1136 869 1102Z" fill="#DBD8DB" fill-rule="evenodd"/></g></svg>